The Complete Harry Potter Collection all 6 Movies.

The First 4 movies are mp4 all DVDRips and will run on (PIZ) PSP Ipod and Zune.

The Fifth and Sixth movies are in mkv, DVDRip and BRRip respectively



01 Harry Potter And The Sorcerer's Stone [2001]:

IMDB                             : http://www.imdb.com/title/tt0241527/
General
Complete name                    : 01 Harry Potter And The Sorcerer's Stone [2001] DvdRip [Eng].mp4
Format                           : MPEG-4
Format profile                   : Base Media
Codec ID                         : isom
File size                        : 486 MiB
Duration                         : 2h 32mn
Overall bit rate                 : 446 Kbps

Video
ID                               : 1
Format                           : AVC
Format/Info                      : Advanced Video Codec
Format profile                   : Baseline@L2.0
Format settings, CABAC           : No
Format settings, ReFrames        : 2 frames
Codec ID                         : avc1
Codec ID/Info                    : Advanced Video Coding
Duration                         : 2h 32mn
Bit rate mode                    : Variable
Bit rate                         : 347 Kbps
Maximum bit rate                 : 2 649 Kbps
Width                            : 480 pixels
Height                           : 208 pixels
Display aspect ratio             : 2.35:1
Frame rate mode                  : Constant
Frame rate                       : 23.976 fps
Color space                      : YUV
Chroma subsampling               : 4:2:0
Bit depth                        : 8 bits
Scan type                        : Progressive
Bits/(Pixel*Frame)               : 0.145
Stream size                      : 378 MiB (78%)

Audio
ID                               : 2
Format                           : AAC
Format/Info                      : Advanced Audio Codec
Format version                   : Version 4
Format profile                   : LC
Format settings, SBR             : No
Codec ID                         : 40
Duration                         : 2h 32mn
Bit rate mode                    : Variable
Bit rate                         : 96.0 Kbps
Maximum bit rate                 : 122 Kbps
Channel(s)                       : 2 channels
Channel positions                : Front: L R
Sampling rate                    : 44.1 KHz
Stream size                      : 106 MiB (22%)



02 Harry Potter And The Chamber of Secrets [2002] DvdRip [Eng]:

IMDB                             : http://www.imdb.com/title/tt0295297/
General
Complete name                    : 02 Harry Potter And The Chamber of Secrets [2002] DvdRip [Eng].mp4
Format                           : MPEG-4
Format profile                   : Base Media
Codec ID                         : isom
File size                        : 479 MiB
Duration                         : 2h 40mn
Overall bit rate                 : 416 Kbps

Video
ID                               : 1
Format                           : AVC
Format/Info                      : Advanced Video Codec
Format profile                   : Baseline@L2.0
Format settings, CABAC           : No
Format settings, ReFrames        : 2 frames
Codec ID                         : avc1
Codec ID/Info                    : Advanced Video Coding
Duration                         : 2h 40mn
Bit rate mode                    : Variable
Bit rate                         : 317 Kbps
Maximum bit rate                 : 2 879 Kbps
Width                            : 480 pixels
Height                           : 200 pixels
Display aspect ratio             : 2.40:1
Frame rate mode                  : Constant
Frame rate                       : 23.976 fps
Color space                      : YUV
Chroma subsampling               : 4:2:0
Bit depth                        : 8 bits
Scan type                        : Progressive
Bits/(Pixel*Frame)               : 0.138
Stream size                      : 365 MiB (76%)
Writing library                  : x264 core 59

Audio
ID                               : 2
Format                           : AAC
Format/Info                      : Advanced Audio Codec
Format version                   : Version 4
Format profile                   : LC
Format settings, SBR             : No
Codec ID                         : 40
Duration                         : 2h 40mn
Bit rate mode                    : Variable
Bit rate                         : 96.0 Kbps
Maximum bit rate                 : 123 Kbps
Channel(s)                       : 2 channels
Channel positions                : Front: L R
Sampling rate                    : 32.0 KHz
Stream size                      : 112 MiB (23%)



03 Harry Potter and the Prisoner of Azkaban [2004]

IMDB                             : http://www.imdb.com/title/tt0304141/
General
Complete name                    : 03 Harry Potter and the Prisoner of Azkaban [2004].mp4
Format                           : MPEG-4
Format profile                   : Base Media
Codec ID                         : isom
File size                        : 498 MiB
Duration                         : 2h 22mn
Overall bit rate                 : 489 Kbps

Video
ID                               : 1
Format                           : AVC
Format/Info                      : Advanced Video Codec
Format profile                   : Baseline@L2.0
Format settings, CABAC           : No
Format settings, ReFrames        : 2 frames
Codec ID                         : avc1
Codec ID/Info                    : Advanced Video Coding
Duration                         : 2h 22mn
Bit rate mode                    : Variable
Bit rate                         : 389 Kbps
Maximum bit rate                 : 2 181 Kbps
Width                            : 480 pixels
Height                           : 208 pixels
Display aspect ratio             : 2.35:1
Frame rate mode                  : Constant
Frame rate                       : 23.976 fps
Color space                      : YUV
Chroma subsampling               : 4:2:0
Bit depth                        : 8 bits
Scan type                        : Progressive
Bits/(Pixel*Frame)               : 0.163
Stream size                      : 397 MiB (80%)
Writing library                  : x264 core 59

Audio
ID                               : 2
Format                           : AAC
Format/Info                      : Advanced Audio Codec
Format version                   : Version 4
Format profile                   : LC
Format settings, SBR             : No
Codec ID                         : 40
Duration                         : 2h 22mn
Bit rate mode                    : Variable
Bit rate                         : 96.0 Kbps
Maximum bit rate                 : 119 Kbps
Channel(s)                       : 2 channels
Channel positions                : Front: L R
Sampling rate                    : 48.0 KHz
Stream size                      : 98.6 MiB (20%)



04 Harry Potter And The Goblet Of Fire [2005]

IMDB                             : http://www.imdb.com/title/tt0330373/
General
Complete name                    : 04 Harry Potter And The Goblet Of Fire [2005].mp4
Format                           : MPEG-4
Format profile                   : Base Media
Codec ID                         : isom
File size                        : 517 MiB
Duration                         : 2h 30mn
Overall bit rate                 : 480 Kbps

Video
ID                               : 1
Format                           : AVC
Format/Info                      : Advanced Video Codec
Format profile                   : Baseline@L2.0
Format settings, CABAC           : No
Format settings, ReFrames        : 2 frames
Codec ID                         : avc1
Codec ID/Info                    : Advanced Video Coding
Duration                         : 2h 30mn
Bit rate mode                    : Variable
Bit rate                         : 380 Kbps
Maximum bit rate                 : 3 250 Kbps
Width                            : 480 pixels
Height                           : 200 pixels
Display aspect ratio             : 2.40:1
Frame rate mode                  : Constant
Frame rate                       : 25.000 fps
Color space                      : YUV
Chroma subsampling               : 4:2:0
Bit depth                        : 8 bits
Scan type                        : Progressive
Bits/(Pixel*Frame)               : 0.158
Stream size                      : 409 MiB (79%)
Writing library                  : x264 core 59

Audio
ID                               : 2
Format                           : AAC
Format/Info                      : Advanced Audio Codec
Format version                   : Version 4
Format profile                   : LC
Format settings, SBR             : No
Codec ID                         : 40
Duration                         : 2h 30mn
Bit rate mode                    : Variable
Bit rate                         : 96.0 Kbps
Maximum bit rate                 : 115 Kbps
Channel(s)                       : 2 channels
Channel positions                : Front: L R
Sampling rate                    : 48.0 KHz
Stream size                      : 104 MiB (20%)



05 Harry Potter And The Order Of The Phoenix[2007]

IMDB                             : http://www.imdb.com/title/tt0373889/
General
Complete name                    : 05 Harry Potter And The Order Of The Phoenix[2007].mkv
Format                           : Matroska
File size                        : 534 MiB
Duration                         : 2h 12mn
Overall bit rate                 : 563 Kbps
Movie name                       : 05 Harry Potter And The Order Of The Phoenix[2007]
Encoded date                     : UTC 2010-12-10 22:46:04
Writing application              : mkvmerge v4.3.0 ('Escape from the Island') built on Sep  5 2010 10:30:51
Writing library                  : libebml v1.0.0 + libmatroska v1.0.0

Video
ID                               : 1
Format                           : AVC
Format/Info                      : Advanced Video Codec
Format profile                   : High@L4.0
Format settings, CABAC           : Yes
Format settings, ReFrames        : 3 frames
Muxing mode                      : Container profile=Unknown@4.0
Codec ID                         : V_MPEG4/ISO/AVC
Duration                         : 2h 12mn
Bit rate                         : 450 Kbps
Width                            : 672 pixels
Height                           : 272 pixels
Display aspect ratio             : 2.471
Frame rate                       : 25.000 fps
Color space                      : YUV
Chroma subsampling               : 4:2:0
Bit depth                        : 8 bits
Scan type                        : Progressive
Bits/(Pixel*Frame)               : 0.098
Stream size                      : 417 MiB (78%)
Writing library                  : x264 core 105 r1732 2b04482

Audio
ID                               : 2
Format                           : MPEG Audio
Format version                   : Version 1
Format profile                   : Layer 3
Codec ID                         : A_MPEG/L3
Codec ID/Hint                    : MP3
Duration                         : 2h 12mn
Bit rate mode                    : Constant
Bit rate                         : 112 Kbps
Channel(s)                       : 2 channels
Sampling rate                    : 48.0 KHz
Stream size                      : 106 MiB (20%)



06 Harry Potter and the Half Blood Prince [2009]


IMDB                             : http://www.imdb.com/title/tt0417741/
General
Complete name                    : 06 Harry Potter and the Half Blood Prince [2009].mkv
Format                           : Matroska
File size                        : 651 MiB
Duration                         : 2h 33mn
Overall bit rate                 : 593 Kbps
Encoded date                     : UTC 2009-11-02 23:30:42
Writing application              : mkvmerge v2.5.2 ('Stranger in your Soul') built on Feb 28 2009 18:58:17
Writing library                  : libebml v0.7.7 + libmatroska v0.8.1

Video
ID                               : 1
Format                           : AVC
Format/Info                      : Advanced Video Codec
Format profile                   : High@L3.1
Format settings, CABAC           : Yes
Format settings, ReFrames        : 5 frames
Muxing mode                      : Container profile=Unknown@3.1
Codec ID                         : V_MPEG4/ISO/AVC
Duration                         : 2h 33mn
Nominal bit rate                 : 555 Kbps
Width                            : 1 280 pixels
Height                           : 534 pixels
Display aspect ratio             : 2.35:1
Original display aspect ratio    : 2.35:1
Frame rate                       : 23.976 fps
Color space                      : YUV
Chroma subsampling               : 4:2:0
Bit depth                        : 8 bits
Scan type                        : Progressive
Bits/(Pixel*Frame)               : 0.034
Writing library                  : x264 core 68 r1183M f21daff

Audio
ID                               : 2
Format                           : AAC
Format/Info                      : Advanced Audio Codec
Format version                   : Version 4
Format profile                   : LC
Format settings, SBR             : Yes
Format settings, PS              : No
Codec ID                         : A_AAC
Duration                         : 2h 33mn
Channel(s)                       : 2 channels
Channel positions                : Front: L R
Sampling rate                    : 48.0 KHz

Dont ask me for Subs, I dont do Subs...


Detailed Screen Caps and File info are included in the Torrent:
Some Screens:
 
http://bayimg.com/BabaPAAdJ
 
http://bayimg.com/baBaoaAdj
 
http://bayimg.com/baBAnaaDJ
 
http://bayimg.com/bAbaMAadj
 
http://bayimg.com/bABALAaDj
 
http://bayimg.com/BABAjAaDj
 
http://bayimg.com/PABPmaAdi
 
http://bayimg.com/PAbpkAaDI


Go Ahead... Make My Day!!!
 SEED SEED SEED SEED
 SEED SEED SEED SEED
 SEED SEED SEED SEED
 SEED SEED SEED SEED

P.S. Be Patient, Initial seeding may take time.